<?xml version="1.0" encoding="utf-8"?>
<!-- Generator: Adobe Illustrator 23.0.3, SVG Export Plug-In . SVG Version: 6.00 Build 0)  -->
<svg version="1.1" id="Layer_1" xmlns="http://www.w3.org/2000/svg" xmlns:xlink="http://www.w3.org/1999/xlink" x="0px" y="0px"
	 viewBox="0 0 492 492" style="enable-background:new 0 0 492 492;" xml:space="preserve">
<style type="text/css">
	.st0{fill:#FFFFFF;}
</style>
<g>
	<g>
		<path class="st0" d="M442.6,185.4L265.1,7.8C260,2.8,253.3,0,245.9,0c-7.2,0-14,2.8-19,7.8L49.3,185.4
			c-10.5,10.5-10.5,27.6,0,38.1l16.1,16.1c5.1,5.1,11.8,7.8,19,7.8c7.2,0,14.2-2.8,19.3-7.8L207.6,136v329.1
			c0,14.8,11.6,26.9,26.4,26.9h22.8c14.8,0,27.6-12.1,27.6-26.9V134.8l104.4,104.8c5.1,5.1,11.6,7.8,18.8,7.8s13.9-2.8,18.9-7.8
			l16.1-16.1C453.2,213,453.1,195.9,442.6,185.4z"/>
	</g>
</g>
</svg>
